<svg version="1" xmlns="http://www.w3.org/2000/svg" width="1365.333" height="1365.333" viewBox="0 0 1024.000000 1024.000000"><path d="M522.8 141.3c-9 4.2-12.1 12.6-8.5 23.2 2.7 8 2.8 20.8.3 28.8-4 12.2-16.1 24-29.1 28.2-8.5 2.8-21.9 2.5-30-.5-13.5-5.1-23-14.8-27.5-27.9-2.1-6.5-2.4-9.4-2-20.1.4-8.1-1.6-12.8-7.2-16.6-5.8-4-10-3.9-28.1 1.1-13.9 3.9-36.8 11.2-42.2 13.5-1.1.4-4.7 1.8-8 3.1-14.5 5.4-40.6 17.7-54.7 25.8-2.1 1.1-5.5 3-7.5 4.2-10.8 6-30.9 19.3-42.8 28.2-35.8 27-71.1 63.2-93.1 95.7-16.1 23.6-29 49.5-37 73.6-2.4 7.3-4.5 14.2-4.8 15.5-.2 1.3-.9 4.5-1.5 7.2-.6 2.6-1.3 6.2-1.6 8-.3 1.7-.9 5.7-1.4 8.7-1 5.9-.7 35.5.3 40.5 6.8 31.3 21.5 51.4 47.1 64.2 6.7 3.4 19.6 7.7 26.5 8.8 2.5.4 5.4 1 6.5 1.3 1.1.2 10.3.6 20.4.8 10.1.2 18.5.5 18.7.7.2.2-.5 2.1-1.5 4.3-5 10.4-7.5 23.9-7.3 39.3.1 8.2.5 11.7 2.8 22.1.3 1.4.7 3.6 1 4.9.3 1.3 1.9 6 3.6 10.5 6.3 16.4 13.7 27.7 26.2 40.2 16.6 16.5 32.3 24.6 58.1 29.9 1.7.4 9.3.8 17 1 22.3.4 34.8-2.3 66.3-14.4 26-9.9 45.3-13.1 81.6-13.1 7.6 0 14.1.2 14.4.4.2.3.6 2.9.8 5.8 1.5 20.7 9.1 43.2 20.5 59.9 7.2 10.7 18.6 19.1 31.4 23.2 6.7 2.2 10.5 2.7 27.5 3.2 16.8.6 23.4 1.7 30.8 5.1 5.8 2.7 15.8 12.1 23.3 21.9 10 13 26.4 40.2 35.5 59 9.3 19 29.2 27.2 52.7 21.6 20-4.7 28.7-19.1 25.6-42.1-1.1-7.7-5.8-23.5-9.8-32.2-1.5-3.5-3.6-8.3-4.6-10.8-1.1-2.5-2.9-6.4-4.1-8.8-1.2-2.3-1.9-4.2-1.6-4.2 15-.7 21.2-1.7 33.9-5.9 41.1-13.5 80.3-49 94-85.1 6.4-17.1 8.3-35.7 5.2-53-.9-5.2-2-10.2-2.3-11.1-.5-1.1 1.5-3 7.6-7.2 40.5-27.6 67.4-63.1 78.5-103.7 4.8-17.6 6.2-29.6 5.8-50.5-.1-10.5-.5-20.1-.8-21.5-.3-1.4-.8-4.3-1.1-6.5-1.3-9.8-5.2-26.3-8.8-37-9.9-29.7-31.2-68.9-51.8-95.4-17.4-22.3-38.9-44.6-56.5-58.6-2.7-2.1-5.2-4.2-5.5-4.6-1.1-1.4-20.1-15-28.5-20.4-51.3-33-124.9-61.5-196-76-32.4-6.6-51.4-8.7-56.7-6.2zm39.2 37.8c3 .6 6.9 1.3 8.5 1.6 24.9 4.4 85.8 22.5 107 31.7 1.6.8 5.5 2.4 8.5 3.6 6.9 2.7 32.1 14.1 33.5 15.1.6.4 5.9 3.2 12 6.4 6 3.1 13.2 7.2 16 8.9 2.7 1.8 6.4 4.1 8 5.1 3 1.8 21.2 14.6 24.9 17.5 15.7 12.3 43.7 40 52.8 52.2 1.5 2 3.3 4.2 4 5 4.5 4.6 19.5 26.9 25.8 38.3 12.9 23.2 24.5 51.9 27.4 68 .3 1.6.8 4.1 1.1 5.5 2.1 10.4 2.8 18.2 2.8 32 .1 20.1-2.4 35.1-8 49-.4.8-.7 1.7-.8 2-.1.3-.5 1.4-.9 2.5s-1.2 3.2-1.8 4.7c-.6 1.6-1.5 2.8-2.1 2.8-.6 0-.7.3-.4.7.7.7-3.9 9.3-5.5 10.4-.6.3-.9.9-.8 1.3.4 1.8-12.4 18.1-20.9 26.6-8.2 8.1-27.2 23.7-30.6 25.1-3.7 1.4-20.7 13.9-22.4 16.4-3.8 5.6-3.6 15.6.4 20.5 1.1 1.3 3.1 6.4 4.3 11 .9 3.4 1 20.8.2 25-1.5 7.1-1.8 8.3-3.3 12.5-3.5 9.7-15.8 28.1-17.9 26.9-.6-.4-.8-.2-.5.4.9 1.3-9.8 11.9-17.8 17.8-3.3 2.4-6.5 4.8-7 5.2-1.3 1.1-14.3 8.5-17.5 10-11.2 5.3-23.4 8.4-33 8.4-8.8 0-11.6-1.1-23.5-8.7-9.4-6.1-14.8-7.5-20.9-5.5-7.4 2.4-12.5 11.2-11.1 18.9.8 4 .4 3.2 14.4 30.4C676 802 686.7 825 687.5 829c.2.8.4 1.6.4 1.7.1.2.2.6.3 1 0 .5.8 2.4 1.6 4.3.7 1.8 1.6 5.6 1.9 8.2.5 4.2.3 4.8-1.3 4.9-1.1 0-2.7.2-3.7.4-3.4.6-7.2-1.5-8.6-4.8-2.2-5-18.1-34-19.7-35.8-.8-.8-1.4-1.9-1.4-2.3 0-1.2-12-18.6-18.6-27.1-8.8-11.2-18.8-21.3-25.9-26-6.5-4.3-17.1-9.1-22-10.1-1.1-.2-3.3-.7-5-1-4.7-1.1-8.1-1.3-21.5-1.9-25.2-.9-28.9-2-35.4-10.6-11.9-15.7-18.9-43.5-14.2-56.8.9-2.4 1.6-5.8 1.6-7.5-.1-5.1-3.4-11.2-7.9-14.1-3.5-2.4-5.3-2.8-14.8-3.3-21.5-1.1-62-.4-70.8 1.4-4 .8-12.1 1.8-15.7 1.8-2 .1-3.4.4-3.1.8.2.5-.4.8-1.5.8-3.4 0-22.6 5.9-35.3 10.9-25.5 9.9-32.3 11.5-49.9 11.4-6.1-.1-13.2-.8-17-1.7-3.6-.9-7.3-1.8-8.2-2-.9-.3-4.8-2-8.7-3.9-18.5-9.1-31.4-24.7-38.7-46.8-2.4-7.5-2.7-9.9-2.8-21.9 0-14.6 1.5-20.7 7.1-28.9 4.6-6.8 7.9-8.8 25.7-15.6 19-7.3 38-16.4 40.3-19.3 4.8-6.1 6.1-13.3 3.4-19.2-2.4-5.2-4.2-7-9.1-9.2-5.7-2.5-9-2.1-27 3-5.8 1.7-12.3 3.3-14.5 3.7-2.2.3-7.6 1.2-12 2-8.4 1.5-9 1.6-22.5 4-22.5 3.9-50.2 4.1-59.8.4-1.5-.6-2.9-1-3.2-1-1.4.1-6-1.5-10-3.3-21.1-9.8-31.3-29.3-30.5-58.5.4-12.6.7-14.9 4.6-30.6 6.5-26.9 21-57.3 40.2-84.3 3.4-4.8 6.4-8.9 6.7-9.2.3-.3 2.5-3 4.8-6 11-14 33.6-37 49.3-50.2 2.4-2.1 5.1-4.4 5.9-5.1.8-.7 3.5-2.9 6-4.8s4.7-3.6 5-3.9c1.3-1.4 13.3-10.1 21-15.1 16.4-10.7 19.9-12.9 21.7-13.6 1-.3 2.5-1.2 3.3-1.8 2.6-2.2 29-15.6 29-14.8 0 .5.4.3.8-.3 1.4-2.1 38.7-17.1 51.2-20.6 1.9-.5 5.4-1.6 7.8-2.4 2.3-.8 4.7-1.4 5.1-1.4.5 0 1.2 2.1 1.6 4.7.4 2.6 1.3 6 2.1 7.5s1.4 3 1.4 3.3c0 .3.7 1.9 1.5 3.5.9 1.7 1.2 3 .8 3-.5 0-.3.4.2.8.6.4 2.6 3.2 4.6 6.3 11.4 17.4 28.5 29 50.9 34.6.8.2 6.3.7 12.2 1 31.4 1.7 59.5-14 75-41.9 2.4-4.4 6.4-15.1 7.2-19.4 1.1-5.8 1.6-10.4 1.8-14.6.1-4.6.2-4.8 2.7-4.3 1.4.3 5.1 1 8.1 1.6z"/></svg>